# xmcd CD database file
# Copyright (C) 1993-2000  Ti Kan
#
# Track frame offsets:
#	150
#	9510
#	20715
#	30205
#	40465
#	48572
#	58692
#	67747
#	76095
#	86140
#	94932
#	104115
#	113560
#	123610
#	132195
#	142810
#
# Disc length: 2050 seconds
#
# Revision: 1
# Processed by: cddbd v1.4PL0 Copyright (c) Steve Scherf et al.
# Submitted via: xmcd 2.6 PL0
#
DISCID=d1080010
DTITLE=Moon Mullican - Old Texan
DYEAR=1900
DGENRE=
TTITLE0=Jambalaya
TTITLE1=A Mighty Pretty Waltz
TTITLE2=So Long
TTITLE3=A Thousend And One Sleepless Nights
TTITLE4=Short But Sweet
TTITLE5=A Crushed Red Rose (And A Faded Blue Ribbon)
TTITLE6=I'm Mad With You
TTITLE7=Keep A Light In The Window For Me
TTITLE8=Heartless Lover
TTITLE9=The Lamp Of Life Is Burning Low
TTITLE10=Love Is The Light That Leads Me Home
TTITLE11=Seven Nights To Rock
TTITLE12=Souther Hospitality
TTITLE13=Leaving You With A Worried Mind
TTITLE14=Well Oh Well
TTITLE15=Where Beautiful Flowers Grow
EXTD=
EXTT0=
EXTT1=
EXTT2=
EXTT3=
EXTT4=
EXTT5=
EXTT6=
EXTT7=
EXTT8=
EXTT9=
EXTT10=
EXTT11=
EXTT12=
EXTT13=
EXTT14=
EXTT15=
PLAYORDER=
